# xmcd CD database file
#
# Track frame offsets:
#	150
#	14286
#	32774
#	48574
#	62872
#	79261
#	95935
#	110371
#	123877
#	137365
#	159509
#	171726
#	210421
#	225400
#	239105
#	250501
#	268489
#	284170
#	302934
#	317703
#	346419
#
# Disc length: 4751 seconds
#
# Revision: 2
# Processed by: cddbd v1.5.2PL0 Copyright (c) Steve Scherf et al.
# Submitted via: jetAudio 7
#
DISCID=3d128d15
DTITLE=Country Hits 2 - Country Hits 2
DYEAR=1900
DGENRE=Country
TTITLE0=The Sound Of Silence
TTITLE1=Down In The Willow Garden
TTITLE2=Leaving On A Jet Plane
TTITLE3=Donna Donna
TTITLE4=You Needed Me
TTITLE5=Torn Between Two Lovers
TTITLE6=Scarborough Fair
TTITLE7=Blowin' In The Wind
TTITLE8=Gone The Rainbow
TTITLE9=Bridge Over Troubled Water
TTITLE10=500 Hundred Miles Away From Home
TTITLE11=American Pie
TTITLE12=One Take Over The Line
TTITLE13=Let Me Be There
TTITLE14=It's So Easy
TTITLE15=Stumblin' In
TTITLE16=Achy Breaky Heart
TTITLE17=How Do You Do
TTITLE18=If You Love Me (Let Me Know)
TTITLE19=Lyin' Eyes
TTITLE20=Snowbird
EXTD=
EXTT0=
EXTT1=
EXTT2=
EXTT3=
EXTT4=
EXTT5=
EXTT6=
EXTT7=
EXTT8=
EXTT9=
EXTT10=
EXTT11=
EXTT12=
EXTT13=
EXTT14=
EXTT15=
EXTT16=
EXTT17=
EXTT18=
EXTT19=
EXTT20=
PLAYORDER=
